<?xml version="1.0" encoding="UTF-8"?>
<svg version="1.1" xmlns="http://www.w3.org/2000/svg" width="1024" height="1024">
<path d="M0 0 C1.18858636 -0.00290688 2.37717271 -0.00581376 3.60177684 -0.00880873 C6.89814657 -0.01484572 10.19428781 -0.01194331 13.49064163 -0.00525283 C17.0779951 -0.00017528 20.66533069 -0.00670093 24.25268161 -0.01173949 C30.539245 -0.01896262 36.82577405 -0.01874388 43.11233902 -0.01364517 C52.46096433 -0.00608361 61.80956064 -0.009946 71.15818576 -0.01606179 C87.85602775 -0.02659851 104.55385445 -0.02567821 121.25169791 -0.01990396 C135.8679377 -0.01487436 150.48417189 -0.01355873 165.10041237 -0.01594925 C166.0696598 -0.01610202 167.03890723 -0.01625479 168.03752579 -0.01641219 C171.97200799 -0.01703486 175.90649018 -0.01767166 179.84097237 -0.01833172 C216.76196345 -0.0244518 253.6829448 -0.01890002 290.60393438 -0.00813792 C323.39954015 0.001349 356.19513038 0.00050805 388.99073601 -0.00905991 C425.83481614 -0.01977304 462.67888765 -0.02401327 499.52296913 -0.01783538 C503.45217506 -0.01719395 507.38138099 -0.01656827 511.31058693 -0.01594925 C512.27805949 -0.01579109 513.24553205 -0.01563294 514.24232197 -0.01546999 C528.84451912 -0.0131962 543.44671004 -0.01585355 558.04890633 -0.02090836 C574.65896314 -0.02662954 591.26900227 -0.02519172 607.87905689 -0.01434687 C617.17211549 -0.00847927 626.46513577 -0.00808372 635.75819337 -0.01563922 C641.97027388 -0.02013212 648.18232374 -0.01731815 654.39439972 -0.00862968 C657.93085276 -0.00388433 661.46722979 -0.00221987 665.00368036 -0.00944164 C700.5248203 -0.06614332 700.5248203 -0.06614332 705.81693757 4.68428397 C706.57264066 5.53152541 707.32834376 6.37876686 708.10694695 7.25168228 C708.82882195 8.03543228 709.55069695 8.81918228 710.29444695 9.62668228 C717.91610507 20.66494577 715.25227642 39.51754727 715.23393059 52.53613663 C715.23508521 54.33980747 715.23667501 56.14347808 715.23865783 57.9471482 C715.24280393 62.86329595 715.240782 67.77942411 715.23767161 72.6955719 C715.23539855 78.01242831 715.23890648 83.32928148 715.24165154 88.64613724 C715.24608694 99.0431848 715.24514295 109.44022512 715.24223889 119.83727296 C715.23997731 128.284623 715.23967561 136.73197103 715.24076271 145.17932129 C715.24099256 146.98503055 715.24099256 146.98503055 715.24122705 148.82721879 C715.24154678 151.27286213 715.241871 153.71850546 715.24219964 156.16414879 C715.24504759 179.06715464 715.24177753 201.97015647 715.23639928 224.87316166 C715.23192616 244.53091272 715.23271268 264.18865788 715.23731804 283.84640884 C715.24266609 306.68492666 715.24477896 329.52344098 715.24170578 352.36195934 C715.24138723 354.7953732 715.24107286 357.22878706 715.24076271 359.66220093 C715.24060844 360.85946052 715.24045416 362.05672011 715.24029521 363.29026029 C715.23943117 371.73393588 715.24089038 380.17760924 715.24324226 388.62128448 C715.24604275 398.90110334 715.24529647 409.18091456 715.23996152 419.46073253 C715.23732878 424.70690079 715.23631235 429.9530563 715.23961067 435.19922447 C715.24258199 439.99765993 715.24096679 444.79607077 715.23563312 449.59450398 C715.2345126 451.33370215 715.23509209 453.07290238 715.23750891 454.81209923 C715.24053478 457.16969157 715.2374456 459.52719876 715.23278809 461.88478661 C715.23262573 463.19618366 715.23246338 464.50758072 715.23229611 465.85871708 C715.12342124 468.80575417 714.74031909 471.38546937 714.10694695 474.25168228 C714.10694695 475.24168228 714.10694695 476.23168228 714.10694695 477.25168228 C709.17203189 553.51855126 689.7900743 627.26977723 643.10694695 689.25168228 C642.33608757 690.27906509 641.5652282 691.30644791 640.77100945 692.36496353 C632.11061328 703.81435934 622.78708026 714.65431129 613.10694695 725.25168228 C612.23167351 726.21976822 611.35640007 727.18785416 610.4546032 728.18527603 C602.84480311 736.58062986 595.10595608 744.84829544 586.48194695 752.22043228 C584.55073266 753.87212871 582.63830188 755.54032606 580.73194695 757.22043228 C573.33972702 763.71770799 565.86064547 769.98043338 557.96632195 775.86496353 C556.63029895 776.86136723 555.29731998 777.86185735 553.96632195 778.86496353 C542.96854544 787.15070331 531.77677552 794.9446636 520.10694695 802.25168228 C519.10534538 802.88847916 518.10374382 803.52527603 517.0717907 804.18136978 C513.77570346 806.24863311 510.4471541 808.25698916 507.10694695 810.25168228 C506.27775749 810.75087173 505.44856804 811.25006119 504.59425163 811.76437759 C490.73387003 820.07096455 476.62810473 827.67444823 462.16944695 834.87668228 C461.40026939 835.2599971 460.63109184 835.64331192 459.83860588 836.03824234 C451.3314047 840.26756069 442.79650876 844.40661871 434.10694695 848.25168228 C434.43694695 848.91168228 434.76694695 849.57168228 435.10694695 850.25168228 C434.23376823 850.20696793 433.36058952 850.16225357 432.46095085 850.11618423 C428.88758265 850.26054436 426.69907236 850.98671944 423.44288445 852.41965103 C422.33839958 852.89459 421.23391472 853.36952896 420.09596062 853.85886002 C418.90333611 854.38036636 417.71071159 854.90187271 416.48194695 855.43918228 C404.88385376 860.40175988 393.16511965 864.92171391 381.29444695 869.18918228 C380.55257133 869.45749863 379.81069572 869.72581497 379.04633904 870.00226212 C371.19834913 872.83644582 363.32308373 875.55868939 355.36475945 878.06808853 C354.71238808 878.27489746 354.06001671 878.48170639 353.38787651 878.69478226 C322.39873186 888.30226584 271.97562318 858.70520874 243.62696648 845.56906509 C242.99988289 845.27951447 242.3727993 844.98996384 241.72671318 844.69163895 C240.03461166 843.90863484 238.34521598 843.1197908 236.65601921 842.3305397 C234.261305 841.12176104 234.261305 841.12176104 232.10694695 841.25168228 C232.10694695 840.59168228 232.10694695 839.93168228 232.10694695 839.25168228 C231.30128288 839.01062759 230.49561882 838.76957291 229.6655407 838.52121353 C225.31908905 836.97061333 221.28741234 835.01201099 217.16944695 832.93918228 C216.30190788 832.50331802 215.43436882 832.06745377 214.5405407 831.6183815 C203.86080377 826.1891349 193.46295031 820.27063348 183.10694695 814.25168228 C182.24037468 813.74878677 181.37380241 813.24589127 180.48097038 812.7277565 C151.71877526 795.95626489 124.01153454 776.99749354 99.4780407 754.41183853 C98.13560761 753.18883112 96.78444101 751.97483189 95.40650749 750.79196548 C89.69256223 745.8843747 84.35698681 740.65074267 79.04444695 735.31418228 C78.18528679 734.45888931 77.32612663 733.60359634 76.44093132 732.72238541 C71.45341458 727.72724832 66.68936484 722.61896188 62.10694695 717.25168228 C61.14603962 716.15676165 60.18385342 715.06296169 59.2202282 713.97043228 C47.16694252 700.17309523 35.5819907 685.42024831 26.5171032 669.45090103 C25.14486983 666.98734254 25.14486983 666.98734254 22.10694695 665.25168228 C22.10694695 664.26168228 22.10694695 663.27168228 22.10694695 662.25168228 C20.82887421 659.80500138 19.50579309 657.44009912 18.10694695 655.06418228 C-3.84140994 616.81330643 -16.80373026 575.76051512 -24.43162727 532.43698502 C-24.80357199 530.21999269 -24.80357199 530.21999269 -25.89305305 528.25168228 C-26.74656895 523.94404076 -27.11088015 519.70015067 -27.35953712 515.31980515 C-27.67117687 510.18118435 -28.0880557 505.07169938 -28.63219643 499.95107651 C-31.0335669 476.91777858 -31.3396428 454.04401967 -31.31454515 430.90043831 C-31.31182914 425.34930898 -31.32648911 419.79821766 -31.33864021 414.24710464 C-31.35949334 403.42919477 -31.36424731 392.6113387 -31.36245233 381.79341108 C-31.36113671 373.00234953 -31.36498916 364.21130456 -31.3723774 355.42024612 C-31.37447682 352.87361384 -31.37657442 350.32698155 -31.37867022 347.78034925 C-31.37971374 346.51240788 -31.38075727 345.2444665 -31.38183242 343.93810266 C-31.39532061 326.8294968 -31.40297848 309.72089629 -31.39850807 292.61228561 C-31.39833612 291.94639806 -31.39816416 291.2805105 -31.397987 290.59444454 C-31.39709832 287.2206658 -31.3961535 283.84688707 -31.39518899 280.47310835 C-31.39499795 279.80323939 -31.39480692 279.13337043 -31.3946101 278.44320241 C-31.394223 277.0885836 -31.39383268 275.73396479 -31.39343912 274.37934598 C-31.38745195 253.2403927 -31.40300477 232.1015485 -31.43504524 210.96261978 C-31.47112709 187.13800334 -31.49041247 163.31345549 -31.48550653 139.48880339 C-31.48326368 126.89886046 -31.48848136 114.30902597 -31.51339912 101.71910477 C-31.53439259 91.02262358 -31.53802141 80.32631061 -31.51909953 69.62982255 C-31.50993754 64.17621705 -31.50881457 58.72292545 -31.52945518 53.26934433 C-31.54814474 48.27630525 -31.54368438 43.28383773 -31.52090937 38.29082054 C-31.51671925 36.48682478 -31.52093744 34.68278534 -31.53450531 32.87883574 C-31.60614561 22.65660144 -31.43188212 13.82392175 -24.52121305 5.6238904 C-17.90345668 -0.67942824 -8.49592816 -0.03617655 0 0 Z " fill="#FBC341" transform="translate(172.89305305480957,85.74831771850586)"/>
<path d="M0 0 C4.52340164 1.50780055 5.33675695 4.70806778 7.45703125 8.8125 C11.77237899 17.7272437 14.52615104 26.48588049 16.6875 36.125 C16.88996338 37.01155273 17.09242676 37.89810547 17.30102539 38.81152344 C20.58551257 54.2824301 21.38330103 69.9784739 21.3125 85.75 C21.31100952 86.58295593 21.30951904 87.41591187 21.3079834 88.27410889 C21.1315558 143.73688839 21.1315558 143.73688839 13 160 C25.94406009 165.21521114 36.89396399 168.83488289 50.41015625 163.25 C61.95362077 157.67849374 69.73565512 148.97728937 75.90625 137.8359375 C76.2671875 137.23007813 76.628125 136.62421875 77 136 C77.33 136 77.66 136 78 136 C78.76626475 142.1550715 79.16954661 148.17155319 79.203125 154.37109375 C79.21013931 155.24260574 79.21715363 156.11411774 79.22438049 157.01203918 C79.24182678 159.82057911 79.24823603 162.62890782 79.25 165.4375 C79.25067474 166.39885864 79.25134949 167.36021729 79.25204468 168.35070801 C79.2348846 183.75628442 78.65458641 198.7883838 76 214 C75.83371094 214.96131836 75.66742187 215.92263672 75.49609375 216.91308594 C70.71819846 243.39501296 61.88581017 270.97803998 46 293 C45.27554687 294.01835937 44.55109375 295.03671875 43.8046875 296.0859375 C27.76833008 318.06850784 8.02104888 332.0544297 -19 337 C-22.0078125 337.10546875 -22.0078125 337.10546875 -24 337 C-21.39512586 348.18522746 -21.39512586 348.18522746 -17.75 359.0625 C-15.02286228 366.34568922 -15.6853127 371.79963851 -18.484375 378.96484375 C-26.65942523 395.33601392 -41.41215265 405.86812863 -58.37207031 411.83447266 C-76.06488092 417.46272015 -102.6681203 420.66593985 -120 412 C-125.06893525 434.26710843 -122.01630349 455.53704272 -110 475 C-106.64199065 479.9101851 -102.82323682 484.44996964 -99 489 C-86.92110114 503.50244642 -77.14054914 518.01723821 -71 536 C-70.7417041 536.75394043 -70.4834082 537.50788086 -70.21728516 538.28466797 C-60.42519677 568.37788756 -64.79833825 602.86606616 -78.81835938 630.83911133 C-82.80330878 638.49878691 -87.58789368 645.26538649 -93 652 C-93.74765625 652.93585937 -94.4953125 653.87171875 -95.265625 654.8359375 C-96.12414062 655.90714844 -96.12414062 655.90714844 -97 657 C-80.21099963 648.43290262 -68.16403783 636.78669705 -58 621 C-57.46761719 620.20207031 -56.93523437 619.40414062 -56.38671875 618.58203125 C-40.15505874 593.16263916 -32.78790156 561.33522721 -26.08154297 532.32492065 C-16.96968122 492.95924884 -2.73971064 460.8427212 25 431 C25.61101562 430.33484375 26.22203125 429.6696875 26.8515625 428.984375 C58.22107411 396.14650327 103.9028058 379.13344451 148.70214844 377.92724609 C154.13726351 377.84740281 159.56567083 377.88934624 165 378 C165 378.66 165 379.32 165 380 C163.6015625 381.3046875 163.6015625 381.3046875 161.625 382.875 C140.81711945 400.66831129 128.42144676 428.20531822 125 455 C124.68124352 460.08950025 124.71452889 465.13757867 124.8125 470.234375 C124.82580289 471.64657006 124.83722861 473.05878386 124.84692383 474.4710083 C124.8862662 479.631443 124.958163 484.79130378 125.03112793 489.95135498 C125.96913171 557.5271812 110.77199723 620.11680453 63 670 C62.52836426 670.49886719 62.05672852 670.99773438 61.57080078 671.51171875 C53.97585266 679.51560583 45.84109672 686.41270852 37 693 C36.44618652 693.41991211 35.89237305 693.83982422 35.32177734 694.27246094 C11.67492516 712.15945098 -15.49087474 725.12745479 -44.25 732.25 C-45.63832031 732.60118896 -45.63832031 732.60118896 -47.0546875 732.95947266 C-66.74162176 737.58603487 -86.5405295 738.54918964 -106.6875 738.4375 C-107.87277283 738.43412628 -109.05804565 738.43075256 -110.27923584 738.42727661 C-127.85140345 738.35488945 -144.78799595 737.80798953 -162 734 C-163.13324707 733.75862305 -164.26649414 733.51724609 -165.43408203 733.26855469 C-212.98356623 722.92746867 -260.01306545 701.31417282 -295.89453125 667.95703125 C-297.80391744 666.18225856 -299.75920568 664.49444992 -301.75 662.8125 C-311.74490981 654.07455654 -320.86431005 644.483674 -329 634 C-329.763125 633.06542969 -330.52625 632.13085938 -331.3125 631.16796875 C-349.84795838 608.02835003 -364.05372258 580.55347597 -372 552 C-372.23654297 551.15308594 -372.47308594 550.30617188 -372.71679688 549.43359375 C-388.46681815 491.58171505 -376.16334666 434.42826091 -347.56152344 382.71875 C-340.9657471 371.23492178 -333.16545704 360.41242633 -325 350 C-324.59587891 349.48228027 -324.19175781 348.96456055 -323.77539062 348.43115234 C-318.41580362 341.59456287 -318.41580362 341.59456287 -316 339 C-315.34 339 -314.68 339 -314 339 C-314 338.34 -314 337.68 -314 337 C-314.99644531 336.9071875 -315.99289062 336.814375 -317.01953125 336.71875 C-321.33081421 336.09496226 -324.83905863 334.48081541 -328.6875 332.5 C-329.38230469 332.14615234 -330.07710938 331.79230469 -330.79296875 331.42773438 C-340.2321424 326.47390335 -354.48869305 318.53392086 -358 308 C-353.0934865 303.57831985 -348.15350292 300.04241768 -342.4375 296.75 C-341.70853516 296.316875 -340.97957031 295.88375 -340.22851562 295.4375 C-336.24247623 293.11260933 -332.46978373 291.27102855 -328 290 C-329.23363281 289.29037109 -329.23363281 289.29037109 -330.4921875 288.56640625 C-340.45865172 282.66248461 -348.65699833 276.02361825 -356 267 C-353.98065427 265.12337495 -351.95989181 263.24833873 -349.9375 261.375 C-349.3398584 260.82102539 -348.7422168 260.26705078 -348.12646484 259.69628906 C-345.18010763 256.97521793 -342.2227183 254.29938655 -339.125 251.75 C-335.31889839 248.52086245 -332.15598396 244.85731373 -329 241 C-328.24847656 240.08605469 -327.49695313 239.17210937 -326.72265625 238.23046875 C-319.64419129 229.34045351 -313.6207085 219.87156874 -308 210 C-307.58975586 209.30342285 -307.17951172 208.6068457 -306.75683594 207.88916016 C-304.97437008 204.67171 -303.98333575 202.68411144 -304.07421875 198.953125 C-305.16268174 195.48106584 -306.44082251 192.11676805 -307.8125 188.75 C-310.10417529 182.87500289 -311.893947 177.03415676 -313.25 170.875 C-313.40057861 170.19663086 -313.55115723 169.51826172 -313.70629883 168.81933594 C-314.18032591 166.5523194 -314.59725954 164.28078751 -315 162 C-315.17877686 161.02933594 -315.35755371 160.05867187 -315.54174805 159.05859375 C-317.29329031 148.46039773 -317.35614288 137.96782759 -317.3125 127.25 C-317.31034485 126.30013214 -317.3081897 125.35026428 -317.30596924 124.37161255 C-317.15436938 82.66982039 -309.50783903 37.43984824 -286 2 C-272.43781607 7.09837655 -261.2101404 16.07111019 -250 25 C-249.01128906 25.7734375 -248.02257812 26.546875 -247.00390625 27.34375 C-229.56783177 41.23043042 -213.71820937 57.44876154 -200 75 C-199.44892578 75.6997998 -198.89785156 76.39959961 -198.33007812 77.12060547 C-196.4451111 79.51471306 -194.56516335 81.91266053 -192.6875 84.3125 C-192.08800537 85.07804199 -191.48851074 85.84358398 -190.87084961 86.63232422 C-187.74075935 90.65918115 -184.7613907 94.7113216 -182 99 C-180.7625 98.731875 -179.525 98.46375 -178.25 98.1875 C-176.16773871 97.78606544 -174.08420223 97.3912325 -172 97 C-171.36078613 96.87157715 -170.72157227 96.7431543 -170.06298828 96.61083984 C-142.5602359 91.19509113 -114.27311336 93.42647547 -87 99 C-86.73703125 98.14664063 -86.4740625 97.29328125 -86.203125 96.4140625 C-79.44078531 77.22482585 -65.40263572 60.01262472 -52 45 C-51.26652344 44.15695313 -50.53304688 43.31390625 -49.77734375 42.4453125 C-35.73424352 26.4907195 -19.18347702 9.69062241 0 0 Z " fill="#111211" transform="translate(629,117)"/>
<path d="M0 0 C0.91265625 0.51046875 0.91265625 0.51046875 1.84375 1.03125 C4.88321142 2.71189337 7.93773485 4.36123679 11 6 C11.59973633 6.32097656 12.19947266 6.64195312 12.81738281 6.97265625 C22.92051296 12.33157084 33.10055437 16.54913314 44 20 C44.66596191 20.2175293 45.33192383 20.43505859 46.01806641 20.65917969 C68.2590499 27.83229025 91.74606567 30.0609626 114.875 32.5 C130.48147639 34.14820873 145.79127102 35.97793638 161 40 C161.73766602 40.19029785 162.47533203 40.3805957 163.23535156 40.57666016 C179.33988017 44.83531563 193.26922177 51.99666277 206.75708008 61.6953125 C207.89246216 62.50935547 207.89246216 62.50935547 209.05078125 63.33984375 C209.71762939 63.82831787 210.38447754 64.31679199 211.0715332 64.82006836 C213.12189485 66.07458131 214.60773135 66.74540113 217 67 C219.37377553 65.43457497 221.49186226 63.84901983 223.6875 62.0625 C247.66672505 43.6393293 278.99838073 37.53127813 308.71386719 41.34863281 C315.26287114 42.59751264 321.08825352 44.925187 327 48 C327.25621978 73.93513507 325.92799248 99.37602073 317 124 C316.68289063 124.92683594 316.36578125 125.85367188 316.0390625 126.80859375 C310.81856836 141.10917811 300.32986038 155.07800575 286.67578125 162.21484375 C282.87238853 163.98137822 279.20097398 165.5799026 275 166 C274.06994141 166.09474609 274.06994141 166.09474609 273.12109375 166.19140625 C261.83033376 166.81754858 252.88553392 161.5879364 243.73901367 155.6550293 C233.45843094 148.98926824 223.93504423 145.11871619 211.50390625 147.47265625 C204.03884524 149.79020249 197.82495642 154.20311918 191.33325195 158.42480469 C173.33209836 169.99229463 152.64364112 176.43377007 131.1875 176.3125 C130.13361084 176.30686035 129.07972168 176.3012207 127.99389648 176.29541016 C119.93377165 176.17015858 112.73733107 175.39531861 105 173 C104.01773438 172.70198486 104.01773438 172.70198486 103.015625 172.39794922 C82.29560443 165.99488731 64.6283751 154.98847313 49 140 C48.06800781 139.14277344 47.13601563 138.28554688 46.17578125 137.40234375 C19.897542 112.73616008 0.5495369 73.20051147 -1.09184265 36.97290039 C-1.13106721 34.74559564 -1.13869214 32.52060695 -1.1328125 30.29296875 C-1.13376923 29.48636307 -1.13472595 28.67975739 -1.13571167 27.84870911 C-1.13638809 26.15703248 -1.1345716 24.46535318 -1.13037109 22.77368164 C-1.12497993 20.17783869 -1.1303522 17.582166 -1.13671875 14.98632812 C-1.13605856 13.33854128 -1.13477862 11.69075455 -1.1328125 10.04296875 C-1.13483673 9.26592087 -1.13686096 8.48887299 -1.13894653 7.6882782 C-1.11498425 2.2299685 -1.11498425 2.2299685 0 0 Z " fill="#FAC642" transform="translate(347,263)"/>
<path d="M0 0 C9.47811014 9.02155377 15.21214706 20.27407667 20.65234375 31.9921875 C21.05839844 32.85199219 21.46445312 33.71179688 21.8828125 34.59765625 C22.87357734 37.68059456 23.17748007 39.77732855 22.65234375 42.9921875 C20.265625 45.15234375 20.265625 45.15234375 16.96484375 47.0546875 C16.37904541 47.39266357 15.79324707 47.73063965 15.18969727 48.07885742 C1.29407149 55.85973917 -13.29411814 59.56882513 -29.16015625 59.4296875 C-30.39411133 59.42066406 -31.62806641 59.41164063 -32.89941406 59.40234375 C-57.50376209 58.93504935 -77.38564804 47.50217507 -94.42260742 30.27148438 C-98.9921517 25.52225675 -102.91178786 20.62985268 -106.34765625 14.9921875 C-106.93933594 14.06019531 -107.53101563 13.12820313 -108.140625 12.16796875 C-118.34765625 -4.48102679 -118.34765625 -4.48102679 -118.34765625 -12.0078125 C-32.86295972 -28.10575923 -32.86295972 -28.10575923 0 0 Z " fill="#11110F" transform="translate(524.34765625,355.0078125)"/>
<path d="M0 0 C145.60724993 13.39045063 145.60724993 13.39045063 166.0625 36.125 C169.08685259 40.612749 169.08685259 40.612749 169 44 C166.88334111 48.33915073 163.95413219 49.61625393 159.625 51.25 C123.20094362 63.76756304 76.40742176 42.08448922 44.07080078 26.96337891 C41.93917518 25.97170305 39.79708123 25.00592188 37.65234375 24.04296875 C24.66261785 18.15283758 10.93333573 11.28690399 0 2 C0 1.34 0 0.68 0 0 Z " fill="#FAC643" transform="translate(399,457)"/>
<path d="M0 0 C0.90363281 -0.02900391 1.80726563 -0.05800781 2.73828125 -0.08789062 C9.27245677 -0.14900162 14.01418997 1.19724038 19.75 4.3125 C20.43495783 22.19750994 18.01742573 40.42101791 5.75 54.3125 C5.15316406 55.00214844 4.55632813 55.69179688 3.94140625 56.40234375 C-1.48276333 62.26306621 -8.93154605 67.66917243 -17.14428711 68.50537109 C-33.80634973 69.13470389 -43.99414136 65.82846659 -57.25 55.3125 C-54.84526784 37.40262913 -47.02456566 23.06857053 -33.25 11.3125 C-22.42792203 3.46687507 -13.28579576 0.13975241 0 0 Z " fill="#11100F" transform="translate(638.25,340.6875)"/>
<path d="M0 0 C0.33 0.66 0.66 1.32 1 2 C0.21484375 3.8984375 0.21484375 3.8984375 -1.0625 6.375 C-7.52228005 20.12227564 -10.8048764 35.04473348 -13 50 C-13.25692627 51.62180176 -13.25692627 51.62180176 -13.51904297 53.27636719 C-17.23800113 82.06903207 -12.90263549 111.26258438 -2 138 C-13.88056703 132.75542536 -20.39411033 119.3085702 -25.3125 108 C-34.82008937 81.71679739 -30.43589151 54.01476187 -19.14160156 29.10693359 C-14.10839323 18.42040341 -7.2902421 9.24645706 0 0 Z " fill="#F9CA46" transform="translate(411,663)"/>
<path d="M0 0 C0.84546387 0.00757324 1.69092773 0.01514648 2.56201172 0.02294922 C16.44728848 0.38591104 26.86601726 5.99671596 36.52734375 15.7265625 C38.88757222 18.5902192 39.87232175 20.79875313 40.25 24.5 C39.9375 27.4375 39.9375 27.4375 38.875 29.1875 C31.2176685 34.12771387 20.2268232 33.48657004 11.6484375 31.78515625 C1.23729732 28.65105333 -7.48060004 22.91231173 -13.0625 13.4375 C-14.26557987 9.82826038 -14.46815724 7.22363423 -14.0625 3.4375 C-9.79855342 -0.24770732 -5.35334913 -0.06650779 0 0 Z " fill="#FAC844" transform="translate(474.0625,360.5625)"/>
<path d="M0 0 C0.33 0 0.66 0 1 0 C1.902675 11.11437167 2.14269068 22.13840499 2.12698364 33.28445435 C2.12813826 35.08812519 2.12972807 36.8917958 2.13171089 38.69546592 C2.13585698 43.61161367 2.13383506 48.52774183 2.13072467 53.44388962 C2.12845161 58.76074603 2.13195953 64.0775992 2.13470459 69.39445496 C2.13914 79.79150252 2.13819601 90.18854284 2.13529195 100.58559068 C2.13303037 109.03294072 2.13272866 117.48028874 2.13381577 125.92763901 C2.13404561 127.73334827 2.13404561 127.73334827 2.13428011 129.57553651 C2.13459984 132.02117985 2.13492405 134.46682318 2.1352527 136.91246651 C2.13810064 159.81547236 2.13483059 182.71847419 2.12945233 205.62147938 C2.12497922 225.27923044 2.12576573 244.9369756 2.13037109 264.59472656 C2.13571914 287.43324438 2.13783201 310.2717587 2.13475883 333.11027706 C2.13444028 335.54369092 2.13412591 337.97710478 2.13381577 340.41051865 C2.13366149 341.60777824 2.13350721 342.80503783 2.13334826 344.03857801 C2.13248423 352.4822536 2.13394343 360.92592696 2.13629532 369.3696022 C2.13909581 379.64942106 2.13834952 389.92923228 2.13301457 400.20905025 C2.13038183 405.45521851 2.12936541 410.70137402 2.13266373 415.94754219 C2.13563505 420.74597765 2.13401985 425.54438849 2.12868617 430.3428217 C2.12756566 432.08201987 2.12814514 433.8212201 2.13056196 435.56041695 C2.13358784 437.91800929 2.13049865 440.27551648 2.12584114 442.63310432 C2.12567879 443.94450138 2.12551644 445.25589844 2.12534916 446.6070348 C2.0164743 449.55407189 1.63337215 452.13378709 1 455 C1 455.99 1 456.98 1 458 C0.84531159 460.06343295 0.67734275 462.12589054 0.5 464.1875 C0.4071875 465.27417969 0.314375 466.36085938 0.21875 467.48046875 C0.1465625 468.31191406 0.074375 469.14335938 0 470 C-0.33 470 -0.66 470 -1 470 C-0.67 314.9 -0.34 159.8 0 0 Z " fill="#F3CB53" transform="translate(886,105)"/>
<path d="M0 0 C1.67803588 3.35607176 0.93035092 6.52241242 0 10 C-3.49913878 17.80577112 -8.53810095 22.26232342 -16.5 25.375 C-20.90155252 26.82606127 -24.39682622 27.57539672 -29 27 C-29.99 26.34 -30.98 25.68 -32 25 C-32.78378975 19.94891049 -32.46426293 17.07504557 -29.5 12.875 C-23.21775572 5.3716169 -10.3129189 -5.15645945 0 0 Z " fill="#F8C946" transform="translate(638,363)"/>
<path d="M0 0 C0.33 0 0.66 0 1 0 C2.0156051 7.5804765 2.18334393 15.04448951 2.1875 22.6875 C2.19974609 23.88439453 2.21199219 25.08128906 2.22460938 26.31445312 C2.22654297 27.47267578 2.22847656 28.63089844 2.23046875 29.82421875 C2.23457764 30.86666748 2.23868652 31.90911621 2.24291992 32.9831543 C1.97956601 36.25377171 1.15406814 38.93916086 0 42 C-1.16789721 38.49630836 -1.14354174 35.3433958 -1.1328125 31.69921875 C-1.13376923 30.98522415 -1.13472595 30.27122955 -1.13571167 29.53559875 C-1.13639175 28.02511507 -1.13454946 26.51462845 -1.13037109 25.00415039 C-1.12504399 22.70647502 -1.13030963 20.40899723 -1.13671875 18.11132812 C-1.13605748 16.64062457 -1.1347753 15.16992114 -1.1328125 13.69921875 C-1.13483673 13.01776291 -1.13686096 12.33630707 -1.13894653 11.63420105 C-1.11966424 7.65468671 -0.76233501 3.90516899 0 0 Z " fill="#1E180C" transform="translate(752,603)"/>
<path d="M0 0 C0.99 0 1.98 0 3 0 C3.07402793 5.51754805 3.12854366 11.03480856 3.16479492 16.55273438 C3.17990325 18.43071526 3.20039094 20.30866076 3.22631836 22.18652344 C3.26261246 24.88225019 3.27970545 27.57751146 3.29296875 30.2734375 C3.30845261 31.11619232 3.32393646 31.95894714 3.33988953 32.82723999 C3.34057617 35.19287109 3.34057617 35.19287109 3 39 C2.01 39.66 1.02 40.32 0 41 C0 27.47 0 13.94 0 0 Z " fill="#1F190E" transform="translate(647,184)"/>
<path d="M0 0 C0.33 0 0.66 0 1 0 C1 13.2 1 26.4 1 40 C0.67 40 0.34 40 0 40 C-1.94567346 32.67284081 -2.30366401 25.87465296 -2.25 18.3125 C-2.25773437 17.21099609 -2.26546875 16.10949219 -2.2734375 14.97460938 C-2.26049686 9.61394733 -2.20435681 4.99479262 0 0 Z " fill="#231B0D" transform="translate(345,263)"/>
<path d="M0 0 C2.11011995 2.11011995 2.54781065 3.18146438 3.4375 5.95703125 C3.69273437 6.74013672 3.94796875 7.52324219 4.2109375 8.33007812 C4.47132813 9.14927734 4.73171875 9.96847656 5 10.8125 C7.29325187 17.98041269 7.29325187 17.98041269 10 25 C1.47391644 21.29636189 -5.36178268 12.36789984 -9 4 C-8.67 3.34 -8.34 2.68 -8 2 C-7.46890625 2.83144531 -6.9378125 3.66289063 -6.390625 4.51953125 C-5.68421875 5.60621094 -4.9778125 6.69289063 -4.25 7.8125 C-3.55390625 8.89144531 -2.8578125 9.97039063 -2.140625 11.08203125 C-0.23414986 13.68082126 1.31641095 15.27742595 4 17 C3.71125 16.10796875 3.4225 15.2159375 3.125 14.296875 C2.75375 13.12640625 2.3825 11.9559375 2 10.75 C1.62875 9.58984375 1.2575 8.4296875 0.875 7.234375 C0 4 0 4 0 0 Z " fill="#F6EB64" transform="translate(399,776)"/>
<path d="M0 0 C0 4.2939627 -2.55466623 6.12234255 -5.375 9.0625 C-5.91431152 9.63669678 -6.45362305 10.21089355 -7.00927734 10.80249023 C-11.23835018 15.27934575 -15.59533865 19.61494469 -20.0390625 23.87890625 C-21.8804304 25.87066476 -22.84267405 27.58354627 -24 30 C-25.875 30.625 -25.875 30.625 -28 31 C-29.3479743 31.63654342 -30.68596724 32.29605388 -32 33 C-29.37582045 29.63776995 -26.75516764 26.69611664 -23.5 23.9375 C-15.02938248 16.70687782 -7.03019947 8.63710221 0 0 Z " fill="#F9EC63" transform="translate(705,772)"/>
<path d="M0 0 C0.99 1.32 1.98 2.64 3 4 C2.5875 4.886875 2.175 5.77375 1.75 6.6875 C0.29454519 10.0410825 -0.70283032 13.41894701 -1.6875 16.9375 C-4.12075734 25.1246953 -8.02241673 32.47927823 -12 40 C-12.66 39.67 -13.32 39.34 -14 39 C-13.48050781 37.97003906 -12.96101562 36.94007813 -12.42578125 35.87890625 C-6.72748256 24.33188582 -2.34006745 12.71026111 0 0 Z " fill="#F0E45D" transform="translate(561,713)"/>
<path d="M0 0 C0.33 0.66 0.66 1.32 1 2 C0.25 3.79296875 0.25 3.79296875 -1 6.1875 C-5.52169497 15.66395369 -8.07584994 25.94482774 -11 36 C-11.33 36 -11.66 36 -12 36 C-11.62941403 29.0823952 -9.90620648 23.02657235 -7.7277832 16.49804688 C-6.74839552 13.53951715 -6 11.13998332 -6 8 C-4.6875 5.95703125 -4.6875 5.95703125 -3 3.8125 C-2.443125 3.09707031 -1.88625 2.38164063 -1.3125 1.64453125 C-0.6628125 0.83048828 -0.6628125 0.83048828 0 0 Z " fill="#F8EE62" transform="translate(411,663)"/>
<path d="M0 0 C0.88365234 0.00451172 1.76730469 0.00902344 2.67773438 0.01367188 C4.84768559 0.02540134 7.01760172 0.04333505 9.1875 0.0625 C9.1875 0.7225 9.1875 1.3825 9.1875 2.0625 C7.54296875 3.68359375 7.54296875 3.68359375 5.375 5.5 C2.87647282 7.60713676 0.4632944 9.71491398 -1.8125 12.0625 C-2.4725 11.7325 -3.1325 11.4025 -3.8125 11.0625 C-1.1725 8.4225 1.4675 5.7825 4.1875 3.0625 C-2.0825 2.7325 -8.3525 2.4025 -14.8125 2.0625 C-14.8125 1.7325 -14.8125 1.4025 -14.8125 1.0625 C-9.89747242 -0.22985715 -5.03959898 -0.04885517 0 0 Z " fill="#251D09" transform="translate(784.8125,494.9375)"/>
<path d="M0 0 C0.33 0 0.66 0 1 0 C1.25897692 12.17191501 0.59781155 23.93081636 -1 36 C-1.33 36 -1.66 36 -2 36 C-2 27.09 -2 18.18 -2 9 C-1.67 9 -1.34 9 -1 9 C-0.67 6.03 -0.34 3.06 0 0 Z " fill="#F1B93B" transform="translate(651,214)"/>
<path d="M0 0 C1.17175781 0.03480469 2.34351563 0.06960938 3.55078125 0.10546875 C5.32001953 0.14607422 5.32001953 0.14607422 7.125 0.1875 C8.02863281 0.22230469 8.93226563 0.25710938 9.86328125 0.29296875 C9.86328125 0.62296875 9.86328125 0.95296875 9.86328125 1.29296875 C15.14328125 1.62296875 20.42328125 1.95296875 25.86328125 2.29296875 C25.86328125 2.62296875 25.86328125 2.95296875 25.86328125 3.29296875 C15.30328125 3.29296875 4.74328125 3.29296875 -6.13671875 3.29296875 C-3.13671875 0.29296875 -3.13671875 0.29296875 0 0 Z " fill="#1D1A11" transform="translate(456.13671875,335.70703125)"/>
<path d="M0 0 C0.88945312 0.00644531 1.77890625 0.01289062 2.6953125 0.01953125 C4.875 0.1875 4.875 0.1875 5.875 1.1875 C7.56108966 1.25955511 9.25000659 1.27136068 10.9375 1.25 C11.85660156 1.24097656 12.77570313 1.23195313 13.72265625 1.22265625 C14.43292969 1.21105469 15.14320313 1.19945312 15.875 1.1875 C13.73467899 3.08499342 12.48492159 4.14568981 9.58496094 4.34448242 C8.76801758 4.24498291 7.95107422 4.1454834 7.109375 4.04296875 C5.77519531 3.89311523 5.77519531 3.89311523 4.4140625 3.74023438 C3.03347656 3.55944336 3.03347656 3.55944336 1.625 3.375 C0.68914062 3.26607422 -0.24671875 3.15714844 -1.2109375 3.04492188 C-3.51787778 2.77420949 -5.82177375 2.48793461 -8.125 2.1875 C-4.84237969 -0.00091354 -3.80709102 -0.06104665 0 0 Z " fill="#221C0E" transform="translate(487.125,850.8125)"/>
<path d="M0 0 C0.66 1.32 1.32 2.64 2 4 C1.01 4.33 0.02 4.66 -1 5 C-2.69063589 7.47598144 -2.69063589 7.47598144 -4.1875 10.4375 C-4.98220703 11.92056641 -4.98220703 11.92056641 -5.79296875 13.43359375 C-7.14186601 15.82895698 -7.14186601 15.82895698 -7 18 C-7.66 18 -8.32 18 -9 18 C-9.99 20.475 -9.99 20.475 -11 23 C-11.33 22.34 -11.66 21.68 -12 21 C-11.03630697 18.69252384 -10.02133033 16.52722968 -8.875 14.3125 C-8.5545874 13.6819873 -8.2341748 13.05147461 -7.90405273 12.40185547 C-5.60950471 7.9685161 -3.08967037 3.93230774 0 0 Z " fill="#F5E45E" transform="translate(774,518)"/>
<path d="M0 0 C2.58904089 2.3898839 4.69890994 4.90313183 6.75 7.75 C10.07142976 12.28077086 13.94376774 16.12907784 18 20 C13.97720354 20 12.94822978 18.68341872 10 16 C8.35656612 14.04908495 6.77396901 12.04559598 5.25 10 C4.08210938 8.453125 4.08210938 8.453125 2.890625 6.875 C1.27561086 4.41911073 0.41244857 2.85964343 0 0 Z " fill="#0E0904" transform="translate(390,781)"/>
<path d="M0 0 C6.27 0.66 12.54 1.32 19 2 C19 2.33 19 2.66 19 3 C13.06 3.495 13.06 3.495 7 4 C7.99 5.485 7.99 5.485 9 7 C5.56072421 5.7580393 2.74792181 4.44259716 0 2 C0 1.34 0 0.68 0 0 Z " fill="#F7E964" transform="translate(399,457)"/>
<path d="M0 0 C0.33 0.99 0.66 1.98 1 3 C2.65 2.34 4.3 1.68 6 1 C2.45647382 5.31385796 -1.95192247 6.9721398 -7 9 C-5.27845212 5.23511958 -3.00765886 2.84936103 0 0 Z " fill="#F1E361" transform="translate(538,766)"/>
<path d="M0 0 C2.54194161 0.14188985 5.08347993 0.28839155 7.625 0.4375 C8.69427734 0.49647461 8.69427734 0.49647461 9.78515625 0.55664062 C13.91803682 0.80309681 17.92269024 1.23470053 22 2 C22 2.33 22 2.66 22 3 C15.4 3 8.8 3 2 3 C2 2.34 2 1.68 2 1 C1.34 0.67 0.68 0.34 0 0 Z " fill="#FBEF66" transform="translate(432,293)"/>
<path d="M0 0 C5.59753384 4.54799625 10.3143947 9.52331848 15 15 C12 15 12 15 10.55786133 13.83837891 C10.0708374 13.30647949 9.58381348 12.77458008 9.08203125 12.2265625 C8.28442383 11.3603125 8.28442383 11.3603125 7.47070312 10.4765625 C6.92349609 9.86554688 6.37628906 9.25453125 5.8125 8.625 C5.25369141 8.02171875 4.69488281 7.4184375 4.11914062 6.796875 C0 2.27034684 0 2.27034684 0 0 Z " fill="#0C0804" transform="translate(410,172)"/>
<path d="M0 0 C4.84688192 0.78175515 9.3766367 2.39844278 14 4 C14 4.99 14 5.98 14 7 C9.0276578 5.50829734 4.58154261 3.39542583 0 1 C0 0.67 0 0.34 0 0 Z " fill="#FAC94C" transform="translate(381,913)"/>
<path d="M0 0 C1.89575251 -0.02721176 3.79161979 -0.04649136 5.6875 -0.0625 C6.74324219 -0.07410156 7.79898437 -0.08570313 8.88671875 -0.09765625 C11.72410262 -0.00865425 14.2438919 0.35060162 17 1 C17 1.33 17 1.66 17 2 C14.9190156 2.24959784 12.83499188 2.47394907 10.75 2.6875 C9.58984375 2.81511719 8.4296875 2.94273437 7.234375 3.07421875 C3.67533206 2.99254989 2.51822275 2.42472438 0 0 Z " fill="#F5E561" transform="translate(431,461)"/>
<path d="M0 0 C3.63 0 7.26 0 11 0 C11.33 0.99 11.66 1.98 12 3 C8.04 3 4.08 3 0 3 C0 2.01 0 1.02 0 0 Z " fill="#211A0D" transform="translate(561,409)"/>
<path d="M0 0 C0.75732422 0.00966797 1.51464844 0.01933594 2.29492188 0.02929688 C3.08060547 0.05443359 3.86628906 0.07957031 4.67578125 0.10546875 C5.87170898 0.12577148 5.87170898 0.12577148 7.09179688 0.14648438 C9.05758092 0.18179786 11.02301707 0.23560428 12.98828125 0.29296875 C12.98828125 0.62296875 12.98828125 0.95296875 12.98828125 1.29296875 C11.83199219 1.38384766 11.83199219 1.38384766 10.65234375 1.4765625 C9.14800781 1.60224609 9.14800781 1.60224609 7.61328125 1.73046875 C6.11667969 1.85228516 6.11667969 1.85228516 4.58984375 1.9765625 C2.00900512 2.14262501 2.00900512 2.14262501 -0.01171875 3.29296875 C-2.34470535 3.33319266 -4.67878541 3.33617122 -7.01171875 3.29296875 C-4.74810376 0.60821609 -3.50571314 -0.07907624 0 0 Z " fill="#F9ED6C" transform="translate(469.01171875,360.70703125)"/>
<path d="M0 0 C0.80824219 0.11085938 1.61648438 0.22171875 2.44921875 0.3359375 C3.37154297 0.47902344 3.37154297 0.47902344 4.3125 0.625 C4.3125 1.285 4.3125 1.945 4.3125 2.625 C5.6325 2.955 6.9525 3.285 8.3125 3.625 C4.50318824 4.89477059 2.49631007 4.14574507 -1.375 3.1875 C-3.14423828 2.75630859 -3.14423828 2.75630859 -4.94921875 2.31640625 C-5.85285156 2.08824219 -6.75648438 1.86007812 -7.6875 1.625 C-4.33422361 -0.61051759 -3.78006343 -0.54783528 0 0 Z " fill="#1D170A" transform="translate(502.6875,299.375)"/>
<path d="M0 0 C2.64 0 5.28 0 8 0 C6.68 0.33 5.36 0.66 4 1 C4 1.66 4 2.32 4 3 C3.34 3 2.68 3 2 3 C2 4.98 2 6.96 2 9 C-0.29013653 5.5647952 -0.17842973 4.014669 0 0 Z " fill="#F9EA64" transform="translate(605,454)"/>
<path d="M0 0 C1.9453125 -0.29296875 1.9453125 -0.29296875 4.125 -0.1875 C5.40375 -0.125625 6.6825 -0.06375 8 0 C8 0.66 8 1.32 8 2 C8.99 2.33 9.98 2.66 11 3 C6.71 3 2.42 3 -2 3 C-1.34 2.01 -0.68 1.02 0 0 Z " fill="#1B170E" transform="translate(477,211)"/>
<path d="M0 0 C2.35333796 4.70667591 2.17102038 6.8693886 2 12 C1.01 11.67 0.02 11.34 -1 11 C-0.67 7.37 -0.34 3.74 0 0 Z " fill="#1D180B" transform="translate(252,579)"/>
<path d="M0 0 C0.33 0 0.66 0 1 0 C1 1.65 1 3.3 1 5 C0.34 5 -0.32 5 -1 5 C-0.67 6.98 -0.34 8.96 0 11 C-0.99 10.34 -1.98 9.68 -3 9 C-2.67 6.69 -2.34 4.38 -2 2 C-1.34 2 -0.68 2 0 2 C0 1.34 0 0.68 0 0 Z " fill="#1F190C" transform="translate(584,387)"/>
<path d="M0 0 C6.52307692 0.61538462 6.52307692 0.61538462 8.9375 2.5625 C9.288125 3.036875 9.63875 3.51125 10 4 C9.34 4.66 8.68 5.32 8 6 C8 5.34 8 4.68 8 4 C7.05125 3.71125 6.1025 3.4225 5.125 3.125 C2 2 2 2 0 0 Z " fill="#F9C94B" transform="translate(397,921)"/>
<path d="M0 0 C0.66 0.33 1.32 0.66 2 1 C0.02 3.31 -1.96 5.62 -4 8 C-5.32 7.67 -6.64 7.34 -8 7 C-5.36 4.69 -2.72 2.38 0 0 Z " fill="#0C0A05" transform="translate(282,376)"/>
<path d="M0 0 C-2.3129482 2.3129482 -3.47904875 2.49580975 -6.625 3.125 C-7.44226563 3.29257812 -8.25953125 3.46015625 -9.1015625 3.6328125 C-10.04128906 3.81457031 -10.04128906 3.81457031 -11 4 C-10.34 3.67 -9.68 3.34 -9 3 C-9 2.34 -9 1.68 -9 1 C-6.04335481 -0.4783226 -3.25770263 -0.06032783 0 0 Z " fill="#FACB4B" transform="translate(551,955)"/>
<path d="M0 0 C0.33 0.66 0.66 1.32 1 2 C0.22265625 3.7265625 0.22265625 3.7265625 -0.9375 5.625 C-1.618125 6.73875 -2.29875 7.8525 -3 9 C-3.66 9 -4.32 9 -5 9 C-4.42647107 5.12867972 -2.51295648 2.91827204 0 0 Z " fill="#EEE166" transform="translate(411,663)"/>
<path d="M0 0 C0 3.3 0 6.6 0 10 C-0.33 9.34 -0.66 8.68 -1 8 C-1.66 8 -2.32 8 -3 8 C-3 5.69 -3 3.38 -3 1 C-1 0 -1 0 0 0 Z " fill="#231D11" transform="translate(253,592)"/>
<path d="M0 0 C0.66 0 1.32 0 2 0 C2 2.97 2 5.94 2 9 C1.01 8.67 0.02 8.34 -1 8 C-1.125 2.25 -1.125 2.25 0 0 Z " fill="#1A170E" transform="translate(313,257)"/>
<path d="M0 0 C-1.28524261 0.86380259 -2.57842419 1.71580369 -3.875 2.5625 C-4.59429688 3.03816406 -5.31359375 3.51382813 -6.0546875 4.00390625 C-6.69664062 4.33261719 -7.33859375 4.66132812 -8 5 C-8.66 4.67 -9.32 4.34 -10 4 C-4.4 -2.2 -4.4 -2.2 0 0 Z " fill="#F9C84A" transform="translate(685,893)"/>
<path d="M0 0 C0.99 1.32 1.98 2.64 3 4 C2.01 6.31 1.02 8.62 0 11 C-0.66 11 -1.32 11 -2 11 C-1.34 7.37 -0.68 3.74 0 0 Z " fill="#E7D253" transform="translate(561,713)"/>
<path d="M0 0 C2.64 0 5.28 0 8 0 C8 0.66 8 1.32 8 2 C5.04335481 3.4783226 2.25770263 3.06032783 -1 3 C-0.67 2.01 -0.34 1.02 0 0 Z " fill="#1F1A0E" transform="translate(762,496)"/>
<path d="M0 0 C4.60209225 -0.17700355 6.78370866 -0.10814567 11 2 C6.545 2.495 6.545 2.495 2 3 C2 2.34 2 1.68 2 1 C1.34 0.67 0.68 0.34 0 0 Z " fill="#F9E65F" transform="translate(490,468)"/>
<path d="M0 0 C0 2.97 0 5.94 0 9 C-0.33 8.34 -0.66 7.68 -1 7 C-1.66 7 -2.32 7 -3 7 C-3 5.02 -3 3.04 -3 1 C-1 0 -1 0 0 0 Z " fill="#211C10" transform="translate(316,209)"/>
<path d="M0 0 C1.77706209 2.66559313 2.87548273 5.0280615 4 8 C2.0625 7.25 2.0625 7.25 0 6 C-0.8125 4 -0.8125 4 -1 2 C-0.67 1.34 -0.34 0.68 0 0 Z " fill="#EBD556" transform="translate(405,793)"/>
<path d="M0 0 C0.99 0 1.98 0 3 0 C3.1875 2.875 3.1875 2.875 3 6 C2.01 6.66 1.02 7.32 0 8 C0 5.36 0 2.72 0 0 Z " fill="#1D190F" transform="translate(645,240)"/>
<path d="M0 0 C0.33 0 0.66 0 1 0 C1 2.64 1 5.28 1 8 C0.67 8 0.34 8 0 8 C0 5.36 0 2.72 0 0 Z " fill="#EDBC44" transform="translate(140,200)"/>
<path d="M0 0 C0.33 0 0.66 0 1 0 C1 2.31 1 4.62 1 7 C0.67 7 0.34 7 0 7 C0 4.69 0 2.38 0 0 Z " fill="#EFBE48" transform="translate(887,566)"/>
<path d="M0 0 C0.33 0 0.66 0 1 0 C1 2.31 1 4.62 1 7 C0.67 7 0.34 7 0 7 C0 4.69 0 2.38 0 0 Z " fill="#E4B542" transform="translate(140,105)"/>
<path d="M0 0 C2.31 0 4.62 0 7 0 C7 0.33 7 0.66 7 1 C4.69 1 2.38 1 0 1 C0 0.67 0 0.34 0 0 Z " fill="#EBBB44" transform="translate(167,84)"/>
<path d="M0 0 C0.33 0 0.66 0 1 0 C1 1.98 1 3.96 1 6 C0.67 6 0.34 6 0 6 C0 4.02 0 2.04 0 0 Z " fill="#EFBE43" transform="translate(140,457)"/>
<path d="M0 0 C0.33 0 0.66 0 1 0 C1 1.98 1 3.96 1 6 C0.67 6 0.34 6 0 6 C0 4.02 0 2.04 0 0 Z " fill="#EDBD44" transform="translate(140,241)"/>
<path d="M0 0 C0.33 0 0.66 0 1 0 C1 1.98 1 3.96 1 6 C0.67 6 0.34 6 0 6 C0 4.02 0 2.04 0 0 Z " fill="#EEBD44" transform="translate(140,209)"/>
<path d="M0 0 C0.33 0 0.66 0 1 0 C1 1.98 1 3.96 1 6 C0.67 6 0.34 6 0 6 C0 4.02 0 2.04 0 0 Z " fill="#EDBC43" transform="translate(140,177)"/>
<path d="M0 0 C0.33 0 0.66 0 1 0 C1 1.98 1 3.96 1 6 C0.67 6 0.34 6 0 6 C0 4.02 0 2.04 0 0 Z " fill="#ECBC43" transform="translate(140,154)"/>
<path d="M0 0 C0.33 0 0.66 0 1 0 C1 1.65 1 3.3 1 5 C0.67 5 0.34 5 0 5 C0 3.35 0 1.7 0 0 Z " fill="#EEBB44" transform="translate(140,320)"/>
<path d="M0 0 C0.33 0 0.66 0 1 0 C1 1.65 1 3.3 1 5 C0.67 5 0.34 5 0 5 C0 3.35 0 1.7 0 0 Z " fill="#EEBB43" transform="translate(140,258)"/>
<path d="M0 0 C0.33 0 0.66 0 1 0 C1 1.65 1 3.3 1 5 C0.67 5 0.34 5 0 5 C0 3.35 0 1.7 0 0 Z " fill="#EDBD43" transform="translate(140,170)"/>
<path d="M0 0 C1 4 1 4 1 4 Z " fill="#EFC048" transform="translate(140,546)"/>
<path d="M0 0 C1 4 1 4 1 4 Z " fill="#EFBE45" transform="translate(140,523)"/>
<path d="M0 0 C1 4 1 4 1 4 Z " fill="#EDBC43" transform="translate(140,380)"/>
<path d="M0 0 C1 4 1 4 1 4 Z " fill="#EFBE45" transform="translate(140,347)"/>
<path d="M0 0 C1 4 1 4 1 4 Z " fill="#EEBD43" transform="translate(140,220)"/>
<path d="M0 0 C1 4 1 4 1 4 Z " fill="#ECBB43" transform="translate(140,147)"/>
<path d="M0 0 C3 1 3 1 3 1 Z " fill="#F1BF46" transform="translate(522,966)"/>
<path d="M0 0 C3 1 3 1 3 1 Z " fill="#F0C147" transform="translate(565,951)"/>
<path d="M0 0 C3 1 3 1 3 1 Z " fill="#EEBF49" transform="translate(440,943)"/>
<path d="M0 0 C0.33 0.66 0.66 1.32 1 2 C0.34 1.67 -0.32 1.34 -1 1 C-0.67 0.67 -0.34 0.34 0 0 Z " fill="#EBBB45" transform="translate(305,868)"/>
<path d="" fill="#EEBF46" transform="translate(0,0)"/>
<path d="" fill="#EEBE46" transform="translate(0,0)"/>
<path d="" fill="#EFBE47" transform="translate(0,0)"/>
<path d="" fill="#EFBE45" transform="translate(0,0)"/>
<path d="" fill="#F0BF46" transform="translate(0,0)"/>
<path d="" fill="#F0BF44" transform="translate(0,0)"/>
<path d="" fill="#EFBD43" transform="translate(0,0)"/>
<path d="" fill="#EFBE44" transform="translate(0,0)"/>
<path d="" fill="#EEBC44" transform="translate(0,0)"/>
<path d="" fill="#F0BC44" transform="translate(0,0)"/>
<path d="" fill="#EEBD44" transform="translate(0,0)"/>
<path d="" fill="#EFBC45" transform="translate(0,0)"/>
<path d="" fill="#EDBD43" transform="translate(0,0)"/>
<path d="" fill="#EDBB43" transform="translate(0,0)"/>
<path d="" fill="#EDBE44" transform="translate(0,0)"/>
<path d="" fill="#EEBB43" transform="translate(0,0)"/>
<path d="" fill="#ECBD43" transform="translate(0,0)"/>
<path d="" fill="#EDBD45" transform="translate(0,0)"/>
<path d="" fill="#EDBD43" transform="translate(0,0)"/>
<path d="" fill="#ECBB44" transform="translate(0,0)"/>
<path d="" fill="#E9B942" transform="translate(0,0)"/>
<path d="" fill="#E9B944" transform="translate(0,0)"/>
<path d="M0 0 C3 1 3 1 3 1 Z " fill="#F2C246" transform="translate(202,84)"/>
<path d="M0 0 C2 1 2 1 2 1 Z " fill="#EFBE46" transform="translate(461,951)"/>
<path d="M0 0 C2 1 2 1 2 1 Z " fill="#EFBF46" transform="translate(420,934)"/>
<path d="M0 0 C2 1 2 1 2 1 Z " fill="#EEBC46" transform="translate(622,927)"/>
<path d="M0 0 C2 1 2 1 2 1 Z " fill="#EEBC44" transform="translate(642,917)"/>
<path d="M0 0 C2 1 2 1 2 1 Z " fill="#EFBF49" transform="translate(654,911)"/>
<path d="" fill="#EBBD48" transform="translate(0,0)"/>
<path d="" fill="#ECBB44" transform="translate(0,0)"/>
<path d="" fill="#E9BA44" transform="translate(0,0)"/>
<path d="M0 0 C2 1 2 1 2 1 Z " fill="#EBBD46" transform="translate(169,701)"/>
<path d="" fill="#ECBD46" transform="translate(0,0)"/>
<path d="" fill="#ECBD45" transform="translate(0,0)"/>
<path d="" fill="#F0C048" transform="translate(0,0)"/>
<path d="" fill="#EFBE45" transform="translate(0,0)"/>
<path d="" fill="#EFBF46" transform="translate(0,0)"/>
<path d="" fill="#F0C045" transform="translate(0,0)"/>
<path d="" fill="#F0BF44" transform="translate(0,0)"/>
<path d="" fill="#F0BF44" transform="translate(0,0)"/>
<path d="" fill="#EFBD44" transform="translate(0,0)"/>
<path d="" fill="#ECBB43" transform="translate(0,0)"/>
<path d="" fill="#EEBD43" transform="translate(0,0)"/>
<path d="" fill="#EDBC43" transform="translate(0,0)"/>
<path d="" fill="#DFB442" transform="translate(0,0)"/>
<path d="M0 0 C2 1 2 1 2 1 Z " fill="#F8C649" transform="translate(324,84)"/>
<path d="M0 0 C2 1 2 1 2 1 Z " fill="#EEBF45" transform="translate(180,84)"/>
<path d="M0 0 C2 1 2 1 2 1 Z " fill="#E8BA45" transform="translate(164,84)"/>
<path d="" fill="#231A02" transform="translate(0,0)"/>
<path d="" fill="#F0C149" transform="translate(0,0)"/>
<path d="" fill="#EFC046" transform="translate(0,0)"/>
<path d="" fill="#F2BD44" transform="translate(0,0)"/>
<path d="" fill="#EFBE44" transform="translate(0,0)"/>
<path d="" fill="#070500" transform="translate(0,0)"/>
<path d="" fill="#F2C247" transform="translate(0,0)"/>
<path d="" fill="#F0C147" transform="translate(0,0)"/>
<path d="" fill="#F0C34A" transform="translate(0,0)"/>
<path d="" fill="#F1BE46" transform="translate(0,0)"/>
<path d="" fill="#F1BF45" transform="translate(0,0)"/>
<path d="" fill="#F0C14A" transform="translate(0,0)"/>
<path d="" fill="#F1BE46" transform="translate(0,0)"/>
<path d="" fill="#F0BF47" transform="translate(0,0)"/>
<path d="" fill="#F1C147" transform="translate(0,0)"/>
<path d="" fill="#EFBD47" transform="translate(0,0)"/>
<path d="" fill="#EDBD47" transform="translate(0,0)"/>
<path d="" fill="#907124" transform="translate(0,0)"/>
<path d="" fill="#F1C14A" transform="translate(0,0)"/>
<path d="" fill="#EBBC44" transform="translate(0,0)"/>
<path d="" fill="#141000" transform="translate(0,0)"/>
<path d="" fill="#2C2005" transform="translate(0,0)"/>
<path d="" fill="#EDBB43" transform="translate(0,0)"/>
<path d="" fill="#EEBC43" transform="translate(0,0)"/>
<path d="" fill="#EEBD45" transform="translate(0,0)"/>
<path d="" fill="#EEC046" transform="translate(0,0)"/>
<path d="" fill="#EEBF48" transform="translate(0,0)"/>
<path d="" fill="#EDBC43" transform="translate(0,0)"/>
<path d="" fill="#EDBC45" transform="translate(0,0)"/>
<path d="" fill="#EDBD45" transform="translate(0,0)"/>
<path d="" fill="#EDBE43" transform="translate(0,0)"/>
<path d="" fill="#EDBF45" transform="translate(0,0)"/>
<path d="" fill="#EDBB45" transform="translate(0,0)"/>
<path d="" fill="#EFBE46" transform="translate(0,0)"/>
<path d="" fill="#ECBD48" transform="translate(0,0)"/>
<path d="" fill="#EFBE44" transform="translate(0,0)"/>
<path d="" fill="#F0BF46" transform="translate(0,0)"/>
<path d="" fill="#EEBC42" transform="translate(0,0)"/>
<path d="" fill="#EABB46" transform="translate(0,0)"/>
<path d="" fill="#EFBA43" transform="translate(0,0)"/>
<path d="" fill="#EFBA44" transform="translate(0,0)"/>
<path d="" fill="#EBBD48" transform="translate(0,0)"/>
<path d="" fill="#EDBE43" transform="translate(0,0)"/>
<path d="" fill="#EDBA46" transform="translate(0,0)"/>
<path d="" fill="#EBBB42" transform="translate(0,0)"/>
<path d="" fill="#EAB844" transform="translate(0,0)"/>
<path d="" fill="#EEBF4A" transform="translate(0,0)"/>
<path d="" fill="#EDB942" transform="translate(0,0)"/>
<path d="" fill="#EBBA48" transform="translate(0,0)"/>
<path d="" fill="#EBB940" transform="translate(0,0)"/>
<path d="" fill="#EDBF42" transform="translate(0,0)"/>
<path d="" fill="#ECBA43" transform="translate(0,0)"/>
<path d="" fill="#EDBD45" transform="translate(0,0)"/>
<path d="" fill="#EAB944" transform="translate(0,0)"/>
<path d="" fill="#EBBE44" transform="translate(0,0)"/>
<path d="" fill="#EDBD48" transform="translate(0,0)"/>
<path d="" fill="#ECBB43" transform="translate(0,0)"/>
<path d="" fill="#EBBB45" transform="translate(0,0)"/>
<path d="" fill="#EDBD44" transform="translate(0,0)"/>
<path d="" fill="#EDBC45" transform="translate(0,0)"/>
<path d="" fill="#EABA43" transform="translate(0,0)"/>
<path d="" fill="#EABA49" transform="translate(0,0)"/>
<path d="" fill="#EDBC44" transform="translate(0,0)"/>
<path d="" fill="#E9BD48" transform="translate(0,0)"/>
<path d="" fill="#EBBA41" transform="translate(0,0)"/>
<path d="" fill="#EBBB43" transform="translate(0,0)"/>
<path d="" fill="#ECBC43" transform="translate(0,0)"/>
<path d="" fill="#EABD46" transform="translate(0,0)"/>
<path d="" fill="#EEBE48" transform="translate(0,0)"/>
<path d="" fill="#EEBB40" transform="translate(0,0)"/>
<path d="" fill="#F0BA43" transform="translate(0,0)"/>
<path d="" fill="#EABA44" transform="translate(0,0)"/>
<path d="" fill="#EABE48" transform="translate(0,0)"/>
<path d="" fill="#EDBE42" transform="translate(0,0)"/>
<path d="" fill="#EEBD44" transform="translate(0,0)"/>
<path d="" fill="#EDBB46" transform="translate(0,0)"/>
<path d="" fill="#EABA47" transform="translate(0,0)"/>
<path d="" fill="#EEC04A" transform="translate(0,0)"/>
<path d="" fill="#EABC46" transform="translate(0,0)"/>
<path d="" fill="#EDBF4A" transform="translate(0,0)"/>
<path d="" fill="#EDBB48" transform="translate(0,0)"/>
<path d="" fill="#EABD44" transform="translate(0,0)"/>
<path d="" fill="#EABA46" transform="translate(0,0)"/>
<path d="" fill="#E9B946" transform="translate(0,0)"/>
<path d="" fill="#ECBB46" transform="translate(0,0)"/>
<path d="" fill="#EEBE47" transform="translate(0,0)"/>
<path d="" fill="#EABB43" transform="translate(0,0)"/>
<path d="" fill="#EABA45" transform="translate(0,0)"/>
<path d="" fill="#EDBC45" transform="translate(0,0)"/>
<path d="" fill="#EDBE48" transform="translate(0,0)"/>
<path d="" fill="#EDBE46" transform="translate(0,0)"/>
<path d="" fill="#ECBE46" transform="translate(0,0)"/>
<path d="" fill="#EEBC46" transform="translate(0,0)"/>
<path d="" fill="#EFBD45" transform="translate(0,0)"/>
<path d="" fill="#EEBE46" transform="translate(0,0)"/>
<path d="" fill="#EEBF47" transform="translate(0,0)"/>
<path d="" fill="#F1BE46" transform="translate(0,0)"/>
<path d="" fill="#ECBC47" transform="translate(0,0)"/>
<path d="" fill="#ECBC47" transform="translate(0,0)"/>
<path d="" fill="#EDBC46" transform="translate(0,0)"/>
<path d="" fill="#EDBE45" transform="translate(0,0)"/>
<path d="" fill="#534215" transform="translate(0,0)"/>
<path d="" fill="#F0C049" transform="translate(0,0)"/>
<path d="" fill="#EEBE46" transform="translate(0,0)"/>
<path d="" fill="#F0BF49" transform="translate(0,0)"/>
<path d="" fill="#EFBF47" transform="translate(0,0)"/>
<path d="" fill="#F0BF47" transform="translate(0,0)"/>
<path d="" fill="#F0BE45" transform="translate(0,0)"/>
<path d="" fill="#F1BE44" transform="translate(0,0)"/>
<path d="" fill="#F0BE43" transform="translate(0,0)"/>
<path d="" fill="#F1BF44" transform="translate(0,0)"/>
<path d="" fill="#EEBE45" transform="translate(0,0)"/>
<path d="" fill="#EFBF46" transform="translate(0,0)"/>
<path d="" fill="#EFBF45" transform="translate(0,0)"/>
<path d="" fill="#F1BE43" transform="translate(0,0)"/>
<path d="" fill="#EFC044" transform="translate(0,0)"/>
<path d="" fill="#EEBD43" transform="translate(0,0)"/>
<path d="" fill="#EFBD44" transform="translate(0,0)"/>
<path d="" fill="#EFBF44" transform="translate(0,0)"/>
<path d="" fill="#F0BE44" transform="translate(0,0)"/>
<path d="" fill="#EEBE42" transform="translate(0,0)"/>
<path d="" fill="#EDBE45" transform="translate(0,0)"/>
<path d="" fill="#EFBE45" transform="translate(0,0)"/>
<path d="" fill="#EDBC45" transform="translate(0,0)"/>
<path d="" fill="#EEBD45" transform="translate(0,0)"/>
<path d="" fill="#EEBC42" transform="translate(0,0)"/>
<path d="" fill="#EFBD44" transform="translate(0,0)"/>
<path d="" fill="#EEBC44" transform="translate(0,0)"/>
<path d="" fill="#EDBD46" transform="translate(0,0)"/>
<path d="" fill="#EEBE46" transform="translate(0,0)"/>
<path d="" fill="#624F18" transform="translate(0,0)"/>
<path d="" fill="#EDBC46" transform="translate(0,0)"/>
<path d="" fill="#EDBD45" transform="translate(0,0)"/>
<path d="" fill="#EDBB44" transform="translate(0,0)"/>
<path d="" fill="#EFBB43" transform="translate(0,0)"/>
<path d="" fill="#EEBC45" transform="translate(0,0)"/>
<path d="" fill="#EDBE43" transform="translate(0,0)"/>
<path d="" fill="#EEBC45" transform="translate(0,0)"/>
<path d="" fill="#EDBE45" transform="translate(0,0)"/>
<path d="" fill="#EDBC44" transform="translate(0,0)"/>
<path d="" fill="#ECBD44" transform="translate(0,0)"/>
<path d="" fill="#EEBD42" transform="translate(0,0)"/>
<path d="" fill="#ECBC45" transform="translate(0,0)"/>
<path d="" fill="#EFBC45" transform="translate(0,0)"/>
<path d="" fill="#EDBC45" transform="translate(0,0)"/>
<path d="" fill="#EFBC43" transform="translate(0,0)"/>
<path d="" fill="#EEBD46" transform="translate(0,0)"/>
<path d="" fill="#EEBE45" transform="translate(0,0)"/>
<path d="" fill="#EBBC43" transform="translate(0,0)"/>
<path d="" fill="#E8B844" transform="translate(0,0)"/>
<path d="" fill="#E7B642" transform="translate(0,0)"/>
<path d="" fill="#E3B440" transform="translate(0,0)"/>
<path d="" fill="#5D4A16" transform="translate(0,0)"/>
<path d="" fill="#E0B442" transform="translate(0,0)"/>
<path d="" fill="#DDB142" transform="translate(0,0)"/>
<path d="" fill="#DCB445" transform="translate(0,0)"/>
<path d="" fill="#DCB144" transform="translate(0,0)"/>
<path d="" fill="#DCB548" transform="translate(0,0)"/>
<path d="" fill="#E8B845" transform="translate(0,0)"/>
<path d="" fill="#E4B743" transform="translate(0,0)"/>
<path d="" fill="#FAC646" transform="translate(0,0)"/>
<path d="" fill="#F9C747" transform="translate(0,0)"/>
<path d="" fill="#F9C449" transform="translate(0,0)"/>
<path d="" fill="#F9C749" transform="translate(0,0)"/>
<path d="" fill="#F9C749" transform="translate(0,0)"/>
<path d="" fill="#FAC84A" transform="translate(0,0)"/>
<path d="" fill="#F8C849" transform="translate(0,0)"/>
<path d="" fill="#F8C74A" transform="translate(0,0)"/>
<path d="" fill="#F8C648" transform="translate(0,0)"/>
<path d="" fill="#F9C548" transform="translate(0,0)"/>
<path d="" fill="#F8C548" transform="translate(0,0)"/>
<path d="" fill="#F7C646" transform="translate(0,0)"/>
<path d="" fill="#F6C548" transform="translate(0,0)"/>
<path d="" fill="#F8C648" transform="translate(0,0)"/>
<path d="" fill="#F8C449" transform="translate(0,0)"/>
<path d="" fill="#F8C64A" transform="translate(0,0)"/>
<path d="" fill="#F7C747" transform="translate(0,0)"/>
<path d="" fill="#F8C748" transform="translate(0,0)"/>
<path d="" fill="#F7C547" transform="translate(0,0)"/>
<path d="" fill="#F8C648" transform="translate(0,0)"/>
<path d="" fill="#F7C649" transform="translate(0,0)"/>
<path d="" fill="#F7C548" transform="translate(0,0)"/>
<path d="" fill="#F6C446" transform="translate(0,0)"/>
<path d="" fill="#F7C547" transform="translate(0,0)"/>
<path d="" fill="#F6C547" transform="translate(0,0)"/>
<path d="" fill="#F7C546" transform="translate(0,0)"/>
<path d="" fill="#F6C448" transform="translate(0,0)"/>
<path d="" fill="#F6C548" transform="translate(0,0)"/>
<path d="" fill="#F5C347" transform="translate(0,0)"/>
<path d="" fill="#F5C345" transform="translate(0,0)"/>
<path d="" fill="#F5C347" transform="translate(0,0)"/>
<path d="" fill="#F5C247" transform="translate(0,0)"/>
<path d="" fill="#F5C547" transform="translate(0,0)"/>
<path d="" fill="#F4C347" transform="translate(0,0)"/>
<path d="" fill="#F5C447" transform="translate(0,0)"/>
<path d="" fill="#F2C346" transform="translate(0,0)"/>
<path d="" fill="#F2C247" transform="translate(0,0)"/>
<path d="" fill="#F1BF45" transform="translate(0,0)"/>
<path d="" fill="#F1C046" transform="translate(0,0)"/>
<path d="" fill="#F0BE45" transform="translate(0,0)"/>
<path d="" fill="#ECBA45" transform="translate(0,0)"/>
<path d="" fill="#E7B945" transform="translate(0,0)"/>
</svg>
